<?xml version="1.0" encoding="UTF-8"?>
<svg xmlns="http://www.w3.org/2000/svg" version="1.1" viewBox="0 0 503 124.9">
  <defs>
    <style>
      .cls-1 {
        fill: #1d63ed;
      }
    </style>
  </defs>
  <g>
    <g id="Layer_1">
      <g>
        <path class="cls-1" d="M146.5,54.2c-3.4-2.3-12.5-3.3-19-1.5-.4-6.5-3.7-12-9.9-16.8l-2.3-1.5-1.5,2.3c-3,4.5-4.2,10.5-3.8,16,.4,3.4,1.5,7.2,3.8,9.9-8.5,4.9-16.4,3.8-51.2,3.8H8.8c-.2,7.8,1.1,22.9,10.7,35.2,1.1,1.4,2.2,2.7,3.5,3.9,7.8,7.8,19.6,13.5,37.3,13.5,27,0,50.1-14.5,64.1-49.6,4.6,0,16.8.8,22.8-10.7.1-.2,1.5-3,1.5-3l-2.3-1.5h0ZM43.9,47h-15.1v15.1h15.1v-15.1ZM63.4,47h-15.1v15.1h15.1v-15.1ZM83,47h-15.1v15.1h15.1v-15.1ZM102.5,47h-15.1v15.1h15.1v-15.1ZM24.4,47h-15.1v15.1h15.1v-15.1ZM43.9,28h-15.1v15.1h15.1v-15.1ZM63.4,28h-15.1v15.1h15.1v-15.1ZM83,28h-15.1v15.1h15.1v-15.1ZM83,9h-15.1v15.1h15.1v-15.1Z"/>
        <path class="cls-1" d="M493.8,95.9c0,3.9-3.1,7-7.1,7s-7.2-3.1-7.2-7,3.2-6.9,7.2-6.9,7.1,3.1,7.1,6.9ZM481.3,95.9c0,3.1,2.3,5.5,5.4,5.5s5.3-2.4,5.3-5.5-2.2-5.6-5.3-5.6-5.4,2.5-5.4,5.5h0ZM485.5,99.5h-1.6v-6.9c.6-.1,1.5-.2,2.7-.2s1.9.2,2.4.5c.4.3.7.8.7,1.5s-.6,1.4-1.4,1.6h0c.7.3,1.1.8,1.3,1.8.2,1.1.3,1.5.5,1.7h-1.7c-.2-.3-.3-.9-.6-1.7-.1-.8-.6-1.1-1.4-1.1h-.8v2.8h0ZM485.6,95.6h.8c.9,0,1.6-.3,1.6-1s-.5-1.1-1.5-1.1-.7,0-.9,0v2Z"/>
        <path class="cls-1" d="M220.6,25.8c-1-1-2.2-1.5-3.6-1.5s-2.7.5-3.6,1.5c-1,1-1.4,2.2-1.4,3.7v24.7c-4.9-4.1-10.6-6.1-17.1-6.1s-14,2.7-19.3,8.1c-5.3,5.4-8,12-8,19.6s2.7,14.2,8,19.6c5.3,5.4,11.8,8.1,19.3,8.1s13.9-2.7,19.3-8.1c5.3-5.4,8-11.9,8-19.6V29.5c0-1.5-.5-2.7-1.5-3.7ZM210.5,82.7h0c-.9,2.1-2.1,4-3.6,5.6-1.5,1.6-3.4,2.8-5.4,3.8-2.1.9-4.3,1.4-6.7,1.4s-4.6-.5-6.7-1.4c-2.1-.9-3.9-2.2-5.4-3.7-1.5-1.6-2.7-3.4-3.6-5.5-.9-2.1-1.3-4.4-1.3-6.7s.5-4.6,1.3-6.8,2.1-3.9,3.6-5.5c1.5-1.6,3.3-2.8,5.4-3.7,2.1-.9,4.3-1.4,6.7-1.4s4.6.5,6.7,1.4c2.1.9,3.9,2.2,5.4,3.8,1.5,1.6,2.8,3.4,3.6,5.5.9,2.1,1.3,4.3,1.3,6.7s-.5,4.6-1.3,6.7Z"/>
        <path class="cls-1" d="M446,65.3c-1.3-3.3-3.3-6.3-6-8.9h0c-5.4-5.4-11.8-8.2-19.3-8.2s-14,2.7-19.3,8.1c-5.3,5.4-8,12-8,19.6s2.7,14.2,8,19.6c5.3,5.4,11.8,8.1,19.3,8.1s12.8-2.2,17.8-6.7c1-1,1.5-2.3,1.5-3.7s-.5-2.7-1.4-3.7c-1-1-2.2-1.5-3.6-1.5-1.3,0-2.4.5-3.4,1.3-1.5,1.3-3.2,2.3-5,3-1.8.7-3.8,1-5.9,1s-3.7-.3-5.4-.9c-1.7-.6-3.3-1.4-4.8-2.5-1.5-1.1-2.7-2.4-3.8-3.9-1.1-1.5-1.9-3.2-2.4-5h38.6c1.4,0,2.6-.5,3.6-1.5,1-1,1.5-2.2,1.5-3.7,0-3.8-.7-7.4-2-10.7h0ZM404.2,70.8c.5-1.8,1.3-3.5,2.4-5,1.1-1.5,2.3-2.8,3.8-3.9,1.5-1.1,3.1-1.9,4.8-2.5,1.8-.6,3.6-.9,5.4-.9s3.6.3,5.4.9c1.7.6,3.3,1.4,4.8,2.5,1.5,1.1,2.7,2.4,3.8,3.9,1.1,1.5,1.9,3.2,2.5,5h-32.8,0Z"/>
        <path class="cls-1" d="M493.4,51.7c-.9-.9-2.1-1.6-3.4-2.1-1.4-.5-2.9-.9-4.5-1.1-1.6-.2-3.2-.3-4.6-.3-3.2,0-6.3.5-9.2,1.6-2.9,1.1-5.5,2.6-7.9,4.6v-1c0-1.4-.5-2.6-1.5-3.6-1-1-2.2-1.5-3.6-1.5s-2.6.5-3.6,1.5c-1,1-1.5,2.2-1.5,3.6v45.2c0,1.4.5,2.6,1.5,3.6,1,1,2.2,1.5,3.6,1.5s2.6-.5,3.6-1.5c1-1,1.5-2.2,1.5-3.6v-22.6c0-2.4.5-4.7,1.3-6.8.9-2.1,2.1-3.9,3.6-5.5,1.5-1.6,3.4-2.8,5.4-3.7,2.1-.9,4.3-1.4,6.7-1.4s4.6.4,6.7,1.2c.8.4,1.5.6,2.1.6s1.4-.1,2-.4c.6-.3,1.2-.6,1.6-1.1.5-.5.8-1,1.1-1.7.3-.6.4-1.3.4-2,0-1.4-.5-2.6-1.4-3.5h0,0Z"/>
        <path class="cls-1" d="M280.4,65.3c-1.3-3.3-3.3-6.3-6-9-5.4-5.4-11.8-8.1-19.3-8.1s-14,2.7-19.3,8.1c-5.3,5.4-8,12-8,19.6s2.7,14.2,8,19.6c5.3,5.4,11.8,8.1,19.3,8.1s13.9-2.7,19.3-8.1c5.3-5.4,8-11.9,8-19.6,0-3.8-.7-7.4-2-10.7h0ZM270.9,82.7h0c-.9,2.1-2.1,4-3.6,5.6-1.5,1.6-3.4,2.8-5.4,3.8-2.1.9-4.3,1.4-6.7,1.4s-4.6-.5-6.7-1.4c-2.1-.9-3.9-2.2-5.4-3.7-1.5-1.6-2.7-3.4-3.6-5.5-.9-2.1-1.3-4.4-1.3-6.8s.5-4.6,1.3-6.8c.9-2.1,2.1-3.9,3.6-5.5,1.5-1.6,3.3-2.8,5.4-3.7,2.1-.9,4.3-1.4,6.7-1.4s4.6.5,6.7,1.4c2.1.9,3.9,2.2,5.4,3.8,1.5,1.6,2.8,3.4,3.6,5.5.9,2.1,1.3,4.3,1.3,6.7s-.5,4.6-1.3,6.7Z"/>
        <path class="cls-1" d="M389.5,53.4c0-.7-.1-1.4-.4-2-.3-.6-.6-1.2-1.1-1.7-.5-.5-1-.9-1.6-1.1s-1.3-.4-2-.4c-1,0-1.9.3-2.7.8l-29.1,19.3V29.6c0-1.5-.5-2.7-1.5-3.7-1-1-2.2-1.5-3.6-1.5s-2.6.5-3.6,1.5c-1,1-1.5,2.2-1.5,3.7v68.9c0,1.4.5,2.7,1.5,3.7,1,1,2.2,1.5,3.6,1.5s2.6-.5,3.6-1.5c1-1,1.5-2.2,1.5-3.7v-17.9l5.9-4,22.5,25.7c.9.9,2.1,1.3,3.4,1.3s1.4-.1,2-.4c.6-.3,1.2-.6,1.6-1.1.5-.5.8-1,1.1-1.7.3-.6.4-1.3.4-2,0-1.4-.5-2.6-1.4-3.6l-21-24,20.4-13.5c1.3-.9,1.9-2.3,1.9-4.1h0s0,0,0,0Z"/>
        <path class="cls-1" d="M303.3,63.6c1.6-1.6,3.4-2.8,5.5-3.7,2.1-.9,4.3-1.4,6.7-1.4s4.1.4,6,1.1c1.8.7,3.6,1.8,5.2,3.2,1,.8,2.1,1.2,3.3,1.2s2.7-.5,3.6-1.5c1-1,1.4-2.2,1.4-3.7s-.6-2.9-1.8-3.9c-5-4.5-10.9-6.7-17.8-6.7s-14,2.7-19.3,8.1c-5.3,5.4-8,12-8,19.6s2.7,14.2,8,19.6c5.3,5.4,11.8,8.1,19.3,8.1s12.8-2.2,17.8-6.8c1.1-1.1,1.6-2.4,1.6-3.8s-.5-2.7-1.4-3.7c-1-1-2.2-1.5-3.6-1.5-1.2,0-2.3.4-3.2,1.1-1.6,1.4-3.3,2.5-5.2,3.2-1.8.7-3.8,1.1-6,1.1s-4.6-.5-6.7-1.4-3.9-2.2-5.5-3.7c-1.6-1.6-2.8-3.4-3.7-5.5-.9-2.1-1.3-4.4-1.3-6.8s.5-4.7,1.3-6.8c.9-2.1,2.1-4,3.7-5.5h0s0,0,0,0Z"/>
      </g>
    </g>
  </g>
</svg>